<svg xmlns="http://www.w3.org/2000/svg" xmlns:xlink="http://www.w3.org/1999/xlink" id="Capa_1" x="0" y="0" version="1.1" viewBox="0 0 512 512" xml:space="preserve" style="enable-background:new 0 0 512 512"><g><g><path d="M504.485,356.028c4.15,0,7.515-3.364,7.515-7.515V47.593c0-4.151-3.365-7.515-7.515-7.515H7.515 C3.365,40.078,0,43.442,0,47.593v416.814c0,4.151,3.365,7.515,7.515,7.515h496.971c4.15,0,7.515-3.364,7.515-7.515v-81.159 c0-4.151-3.365-7.515-7.515-7.515c-4.15,0-7.515,3.364-7.515,7.515v73.644H15.029V135.264h481.941v213.25 C496.971,352.665,500.335,356.028,504.485,356.028z M15.029,120.235V55.108h481.941v65.127H15.029z"/></g></g><g><g><path d="M255.499,352.188c0-12.983-10.563-23.546-23.546-23.546h-80.157c-12.983,0-23.546,10.563-23.546,23.546v75.147 c0,4.151,3.365,7.515,7.515,7.515h112.219c4.15,0,7.515-3.364,7.515-7.515c0-0.515-0.052-1.018-0.15-1.503 c0.098-0.485,0.15-0.988,0.15-1.503V352.188z M184.36,419.82h-41.08v-67.632c0-4.696,3.82-8.517,8.517-8.517h12.274l20.29,27.053 V419.82z M182.857,343.671h18.035l-9.018,12.023L182.857,343.671z M240.47,419.82h-41.08v-49.096l20.29-27.053h12.274 c4.696,0,8.517,3.82,8.517,8.517V419.82z"/></g></g><g><g><path d="M191.875,224.438c-27.828,0-43.615,12.431-51.957,22.859c-9.054,11.318-11.424,22.777-11.521,23.26 c-0.916,4.581,2.701,8.989,7.368,8.989h9.116c3.614,22.684,23.309,40.078,46.994,40.078c26.242,0,47.593-21.351,47.593-47.593 S218.117,224.438,191.875,224.438z M191.875,304.595c-15.369,0-28.276-10.706-31.679-25.049h63.358 C220.151,293.889,207.244,304.595,191.875,304.595z M146.546,264.517c5.19-10.109,17.559-25.049,45.329-25.049 c15.37,0,28.287,10.704,31.688,25.049H146.546z"/></g></g><g><g><path d="M348.18,160.313c-50.552,0-91.679,32.138-91.679,71.64c0,24.806,16.115,47.476,42.54,60.531l-9.939,24.851 c-1.187,2.968-0.368,6.36,2.044,8.46c2.385,2.075,5.916,2.424,8.662,0.856l40.788-23.307c2.567,0.166,5.109,0.25,7.585,0.25 c50.552,0,91.679-32.138,91.679-71.64C439.859,192.451,398.732,160.313,348.18,160.313z M348.18,288.564 c-2.815,0-5.739-0.126-8.689-0.374c-1.523-0.129-3.037,0.207-4.359,0.964l-24.075,13.757l4.613-11.536 c1.536-3.841-0.32-8.2-4.153-9.754c-24.665-10.004-39.987-29.036-39.987-49.668c0-31.215,34.385-56.611,76.65-56.611 c42.265,0,76.65,25.396,76.65,56.611C424.83,263.168,390.445,288.564,348.18,288.564z"/></g></g><g><g><circle cx="347.679" cy="232.454" r="7.515"/></g></g><g><g><circle cx="379.742" cy="232.454" r="7.515"/></g></g><g><g><circle cx="316.618" cy="232.454" r="7.515"/></g></g><g><g><circle cx="464.407" cy="87.671" r="7.515"/></g></g><g><g><circle cx="415.812" cy="87.671" r="7.515"/></g></g><g><g><circle cx="367.217" cy="87.671" r="7.515"/></g></g></svg>