<svg xmlns="http://www.w3.org/2000/svg" xmlns:xlink="http://www.w3.org/1999/xlink" id="Capa_1" x="0" y="0" version="1.1" viewBox="0 0 512 512" xml:space="preserve" style="enable-background:new 0 0 512 512"><g><g><g><path d="M360,128h8c4.8,0,8-3.2,8-8s-3.2-8-8-8h-8c-4.8,0-8,3.2-8,8S355.2,128,360,128z"/><path d="M392,128h8c4.8,0,8-3.2,8-8s-3.2-8-8-8h-8c-4.8,0-8,3.2-8,8S387.2,128,392,128z"/><path d="M328,128h8c4.8,0,8-3.2,8-8s-3.2-8-8-8h-8c-4.8,0-8,3.2-8,8S323.2,128,328,128z"/><path d="M160,464h-8c-4.8,0-8,3.2-8,8s3.2,8,8,8h8c4.8,0,8-3.2,8-8S164.8,464,160,464z"/><path d="M184,464c-4.8,0-8,3.2-8,8s3.2,8,8,8h8c4.8,0,8-3.2,8-8s-3.2-8-8-8H184z"/><path d="M120,464c-4.8,0-8,3.2-8,8s3.2,8,8,8h8c4.8,0,8-3.2,8-8s-3.2-8-8-8H120z"/><path d="M504,80H344V8c0-4.8-3.2-8-8-8H176c-4.8,0-8,3.2-8,8v72H8c-4.8,0-8,3.2-8,8v416c0,4.8,3.2,8,8,8h496c4.8,0,8-3.2,8-8V384 c0-4.8-3.2-8-8-8s-8,4-8,8v112H48V264h72v24c0,4.8,3.2,8,8,8h32c4.8,0,8-3.2,8-8v-24h192v24c0,4.8,3.2,8,8,8h32c4.8,0,8-3.2,8-8 v-24h88v40c0,4.8,3.2,8,8,8s8-4,8-8V88C512,83.2,508.8,80,504,80z M32,496H16V96h16V496z M184,16h144v64H208V40h96v16 c0,4.8,3.2,8,8,8s8-3.2,8-8V32c0-4.8-3.2-8-8-8H200c-4.8,0-8,3.2-8,8v48h-8V16z M152,280h-16v-16h16V280z M152,248h-16v-16h16 V248z M392,280h-16v-16h16V280z M392,248h-16v-16h16V248z M496,248h-88v-24c0-4.8-3.2-8-8-8h-32c-4.8,0-8,3.2-8,8v24H168v-24 c0-4.8-3.2-8-8-8h-32c-4.8,0-8,3.2-8,8v24H48V96h448V248z"/><path d="M504,328c-4.8,0-8,4-8,8v16c0,4.8,3.2,8,8,8s8-4,8-8v-16C512,331.2,508.8,328,504,328z"/></g></g></g></svg>