<svg xmlns="http://www.w3.org/2000/svg" xmlns:xlink="http://www.w3.org/1999/xlink" id="Capa_1" x="0" y="0" version="1.1" viewBox="0 0 480.014 480.014" xml:space="preserve" style="enable-background:new 0 0 480.014 480.014"><g><g><path d="M472.007,416.014h-16v-256c0-22.056-17.944-40-40-40h-40v-112c0-2.656-1.32-5.136-3.512-6.624 c-2.2-1.496-5.008-1.792-7.456-0.808l-37.28,14.912L282.543,0.422c-1.8-0.616-3.744-0.552-5.504,0.16l-37.032,14.816 L202.975,0.582c-1.76-0.712-3.712-0.776-5.504-0.16l-45.216,15.072l-37.28-14.912c-2.44-0.976-5.248-0.68-7.456,0.808 c-2.192,1.488-3.512,3.968-3.512,6.624v112h-40c-22.056,0-40,17.944-40,40v256h-16c-4.424,0-8,3.576-8,8v16 c0,22.056,17.944,40,40,40h400c22.056,0,40-17.944,40-40v-16C480.007,419.59,476.431,416.014,472.007,416.014z M376.007,136.014 h40c13.232,0,24,10.768,24,24v256h-16v-256c0-4.424-3.576-8-8-8h-40V136.014z M120.007,19.83l29.032,11.616 c1.76,0.704,3.712,0.776,5.504,0.16l45.216-15.072l37.28,14.912c1.904,0.768,4.032,0.768,5.936,0l37.28-14.912l45.216,15.072 c1.792,0.616,3.736,0.544,5.504-0.16l29.032-11.616v172.184h-240V19.83z M112.007,208.014h256h24v-16h-16v-24h32v248h-104v-24 c0-4.424-3.576-8-8-8h-15.64l45.952-59.088c2.392-3.072,2.224-7.416-0.392-10.296l-80-88c-3.032-3.328-8.816-3.328-11.84,0l-80,88 c-2.616,2.88-2.784,7.224-0.392,10.296l45.952,59.088h-15.64c-4.424,0-8,3.576-8,8v24h-104v-248h32v24h-16v16H112.007z M232.007,305.486c-9.288,3.312-16,12.112-16,22.528c0,13.232,10.768,24,24,24s24-10.768,24-24c0-10.416-6.712-19.216-16-22.528 v-52.784l61.552,67.712l-49.464,63.6h-40.176l-49.464-63.6l61.552-67.712V305.486z M240.007,320.014c4.416,0,8,3.584,8,8 c0,4.416-3.584,8-8,8c-4.416,0-8-3.584-8-8C232.007,323.598,235.591,320.014,240.007,320.014z M288.007,400.014v16h-96v-16 H288.007z M40.007,160.014c0-13.232,10.768-24,24-24h40v16h-40c-4.424,0-8,3.576-8,8v256h-16V160.014z M464.007,440.014 c0,13.232-10.768,24-24,24h-400c-13.232,0-24-10.768-24-24v-8h16h32h352h32h16V440.014z"/></g></g><g><g><rect width="64" height="16" x="176.007" y="56.014"/></g></g><g><g><rect width="40" height="16" x="256.007" y="56.014"/></g></g><g><g><rect width="24" height="16" x="312.007" y="56.014"/></g></g><g><g><rect width="40" height="16" x="144.007" y="88.014"/></g></g><g><g><rect width="16" height="16" x="200.007" y="88.014"/></g></g><g><g><rect width="104" height="16" x="232.007" y="88.014"/></g></g><g><g><rect width="40" height="16" x="144.007" y="120.014"/></g></g><g><g><rect width="16" height="16" x="200.007" y="120.014"/></g></g><g><g><rect width="16" height="16" x="232.007" y="120.014"/></g></g><g><g><rect width="16" height="16" x="264.007" y="120.014"/></g></g><g><g><rect width="40" height="16" x="296.007" y="120.014"/></g></g><g><g><rect width="16" height="16" x="144.007" y="152.014"/></g></g><g><g><rect width="72" height="16" x="176.007" y="152.014"/></g></g><g><g><rect width="32" height="16" x="264.007" y="152.014"/></g></g></svg>